<?xml version="1.0" encoding="UTF-8" standalone="no"?>
<!-- Created with Inkscape (http://www.inkscape.org/) -->

<svg
   xmlns:dc="http://purl.org/dc/elements/1.1/"
   xmlns:cc="http://creativecommons.org/ns#"
   xmlns:rdf="http://www.w3.org/1999/02/22-rdf-syntax-ns#"
   xmlns:svg="http://www.w3.org/2000/svg"
   xmlns="http://www.w3.org/2000/svg"
   xmlns:sodipodi="http://sodipodi.sourceforge.net/DTD/sodipodi-0.dtd"
   xmlns:inkscape="http://www.inkscape.org/namespaces/inkscape"
   width="210mm"
   height="297mm"
   viewBox="0 0 744.09448819 1052.3622047"
   id="svg4382"
   version="1.1"
   inkscape:version="0.91 r13725"
   sodipodi:docname="gray_pane;.svg">
  <defs
     id="defs4384" />
  <sodipodi:namedview
     id="base"
     pagecolor="#ffffff"
     bordercolor="#666666"
     borderopacity="1.0"
     inkscape:pageopacity="0.0"
     inkscape:pageshadow="2"
     inkscape:zoom="1.1730469"
     inkscape:cx="268.43989"
     inkscape:cy="451.80153"
     inkscape:document-units="px"
     inkscape:current-layer="layer1"
     showgrid="false"
     inkscape:window-width="1920"
     inkscape:window-height="1024"
     inkscape:window-x="0"
     inkscape:window-y="27"
     inkscape:window-maximized="1" />
  <metadata
     id="metadata4387">
    <rdf:RDF>
      <cc:Work
         rdf:about="">
        <dc:format>image/svg+xml</dc:format>
        <dc:type
           rdf:resource="http://purl.org/dc/dcmitype/StillImage" />
        <dc:title></dc:title>
      </cc:Work>
    </rdf:RDF>
  </metadata>
  <g
     inkscape:label="Layer 1"
     inkscape:groupmode="layer"
     id="layer1">
    <path
       inkscape:connector-curvature="0"
       style="fill:#999999;stroke:none"
       d="m 314.23948,455.92198 85.85,0 q 3.55,0 5.25,1.85 1.85,1.7 1.85,5.2 l 0,85.9 q 0,3.5 -1.85,5.2 -1.7,1.85 -5.25,1.85 l -85.85,0 q -7.05,0 -7.05,-7.05 l 0,-85.9 q 0,-7.05 7.05,-7.05 m 0,2 q -5.05,0 -5.05,5.05 l 0,85.9 q 0,5.05 5.05,5.05 l 85.85,0 q 5.1,0 5.1,-5.05 l 0,-85.9 q 0,-5.05 -5.1,-5.05 l -85.85,0"
       id="path218" />
    <path
       inkscape:connector-curvature="0"
       style="fill:#eeeeee;stroke:none"
       d="m 311.18948,462.97198 q 0,-3.05 3.05,-3.05 l 85.85,0 q 3.1,0 3.1,3.05 l 0,85.9 q 0,3.05 -3.1,3.05 l -85.85,0 q -3.05,0 -3.05,-3.05 l 0,-85.9"
       id="path222" />
  </g>
</svg>
